move_right_leg_forward coordinate motion generated from LLM joint_angles
version=1
nRows=33
nColumns=36
inDegrees=yes
endheader
time	pelvis_tilt	pelvis_list	pelvis_rotation	pelvis_tx	pelvis_ty	pelvis_tz	hip_flexion_r	hip_adduction_r	hip_rotation_r	knee_angle_r	knee_angle_r_beta	ankle_angle_r	subtalar_angle_r	mtp_angle_r	hip_flexion_l	hip_adduction_l	hip_rotation_l	knee_angle_l	knee_angle_l_beta	ankle_angle_l	subtalar_angle_l	mtp_angle_l	lumbar_extension	lumbar_bending	lumbar_rotation	arm_flex_r	arm_add_r	arm_rot_r	elbow_flex_r	pro_sup_r	arm_flex_l	arm_add_l	arm_rot_l	elbow_flex_l	pro_sup_l
0.500000	5.000000	-5.000000	0.000000	0.000000	0.000000	0.000000	45.000000	-10.000000	0.000000	10.000000	0.000000	-10.000000	0.000000	0.000000	0.000000	0.000000	0.000000	0.000000	0.000000	0.000000	0.000000	0.000000	0.000000	0.000000	0.000000	0.000000	0.000000	0.000000	0.000000	0.000000	0.000000	0.000000	0.000000	0.000000	0.000000
0.506667	4.998903	-4.998903	0.000000	0.000000	0.000000	0.000000	44.990131	-9.997807	0.000000	9.997807	0.000000	-9.997807	0.000000	0.000000	0.000000	0.000000	0.000000	0.000000	0.000000	0.000000	0.000000	0.000000	0.000000	0.000000	0.000000	0.000000	0.000000	0.000000	0.000000	0.000000	0.000000	0.000000	0.000000	0.000000	0.000000
0.513333	4.995614	-4.995614	0.000000	0.000000	0.000000	0.000000	44.960527	-9.991228	0.000000	9.991228	0.000000	-9.991228	0.000000	0.000000	0.000000	0.000000	0.000000	0.000000	0.000000	0.000000	0.000000	0.000000	0.000000	0.000000	0.000000	0.000000	0.000000	0.000000	0.000000	0.000000	0.000000	0.000000	0.000000	0.000000	0.000000
0.520000	4.990134	-4.990134	0.000000	0.000000	0.000000	0.000000	44.911203	-9.980267	0.000000	9.980267	0.000000	-9.980267	0.000000	0.000000	0.000000	0.000000	0.000000	0.000000	0.000000	0.000000	0.000000	0.000000	0.000000	0.000000	0.000000	0.000000	0.000000	0.000000	0.000000	0.000000	0.000000	0.000000	0.000000	0.000000	0.000000
0.526667	4.982464	-4.982464	0.000000	0.000000	0.000000	0.000000	44.842179	-9.964929	0.000000	9.964929	0.000000	-9.964929	0.000000	0.000000	0.000000	0.000000	0.000000	0.000000	0.000000	0.000000	0.000000	0.000000	0.000000	0.000000	0.000000	0.000000	0.000000	0.000000	0.000000	0.000000	0.000000	0.000000	0.000000	0.000000	0.000000
0.533333	4.972609	-4.972609	0.000000	0.000000	0.000000	0.000000	44.753485	-9.945219	0.000000	9.945219	0.000000	-9.945219	0.000000	0.000000	0.000000	0.000000	0.000000	0.000000	0.000000	0.000000	0.000000	0.000000	0.000000	0.000000	0.000000	0.000000	0.000000	0.000000	0.000000	0.000000	0.000000	0.000000	0.000000	0.000000	0.000000
0.540000	4.960574	-4.960574	0.000000	0.000000	0.000000	0.000000	44.645162	-9.921147	0.000000	9.921147	0.000000	-9.921147	0.000000	0.000000	0.000000	0.000000	0.000000	0.000000	0.000000	0.000000	0.000000	0.000000	0.000000	0.000000	0.000000	0.000000	0.000000	0.000000	0.000000	0.000000	0.000000	0.000000	0.000000	0.000000	0.000000
0.546667	4.946362	-4.946362	0.000000	0.000000	0.000000	0.000000	44.517255	-9.892723	0.000000	9.892723	0.000000	-9.892723	0.000000	0.000000	0.000000	0.000000	0.000000	0.000000	0.000000	0.000000	0.000000	0.000000	0.000000	0.000000	0.000000	0.000000	0.000000	0.000000	0.000000	0.000000	0.000000	0.000000	0.000000	0.000000	0.000000
0.553333	4.929980	-4.929980	0.000000	0.000000	0.000000	0.000000	44.369822	-9.859960	0.000000	9.859960	0.000000	-9.859960	0.000000	0.000000	0.000000	0.000000	0.000000	0.000000	0.000000	0.000000	0.000000	0.000000	0.000000	0.000000	0.000000	0.000000	0.000000	0.000000	0.000000	0.000000	0.000000	0.000000	0.000000	0.000000	0.000000
0.560000	4.911436	-4.911436	0.000000	0.000000	0.000000	0.000000	44.202926	-9.822873	0.000000	9.822873	0.000000	-9.822873	0.000000	0.000000	0.000000	0.000000	0.000000	0.000000	0.000000	0.000000	0.000000	0.000000	0.000000	0.000000	0.000000	0.000000	0.000000	0.000000	0.000000	0.000000	0.000000	0.000000	0.000000	0.000000	0.000000
0.566667	4.890738	-4.890738	0.000000	0.000000	0.000000	0.000000	44.016642	-9.781476	0.000000	9.781476	0.000000	-9.781476	0.000000	0.000000	0.000000	0.000000	0.000000	0.000000	0.000000	0.000000	0.000000	0.000000	0.000000	0.000000	0.000000	0.000000	0.000000	0.000000	0.000000	0.000000	0.000000	0.000000	0.000000	0.000000	0.000000
0.573333	4.867895	-4.867895	0.000000	0.000000	0.000000	0.000000	43.811051	-9.735789	0.000000	9.735789	0.000000	-9.735789	0.000000	0.000000	0.000000	0.000000	0.000000	0.000000	0.000000	0.000000	0.000000	0.000000	0.000000	0.000000	0.000000	0.000000	0.000000	0.000000	0.000000	0.000000	0.000000	0.000000	0.000000	0.000000	0.000000
0.580000	4.842916	-4.842916	0.000000	0.000000	0.000000	0.000000	43.586242	-9.685832	0.000000	9.685832	0.000000	-9.685832	0.000000	0.000000	0.000000	0.000000	0.000000	0.000000	0.000000	0.000000	0.000000	0.000000	0.000000	0.000000	0.000000	0.000000	0.000000	0.000000	0.000000	0.000000	0.000000	0.000000	0.000000	0.000000	0.000000
0.586667	4.815813	-4.815813	0.000000	0.000000	0.000000	0.000000	43.342316	-9.631626	0.000000	9.631626	0.000000	-9.631626	0.000000	0.000000	0.000000	0.000000	0.000000	0.000000	0.000000	0.000000	0.000000	0.000000	0.000000	0.000000	0.000000	0.000000	0.000000	0.000000	0.000000	0.000000	0.000000	0.000000	0.000000	0.000000	0.000000
0.593333	4.786597	-4.786597	0.000000	0.000000	0.000000	0.000000	43.079377	-9.573195	0.000000	9.573195	0.000000	-9.573195	0.000000	0.000000	0.000000	0.000000	0.000000	0.000000	0.000000	0.000000	0.000000	0.000000	0.000000	0.000000	0.000000	0.000000	0.000000	0.000000	0.000000	0.000000	0.000000	0.000000	0.000000	0.000000	0.000000
0.600000	4.755283	-4.755283	0.000000	0.000000	0.000000	0.000000	42.797543	-9.510565	0.000000	9.510565	0.000000	-9.510565	0.000000	0.000000	0.000000	0.000000	0.000000	0.000000	0.000000	0.000000	0.000000	0.000000	0.000000	0.000000	0.000000	0.000000	0.000000	0.000000	0.000000	0.000000	0.000000	0.000000	0.000000	0.000000	0.000000
0.606667	4.721882	-4.721882	0.000000	0.000000	0.000000	0.000000	42.496937	-9.443764	0.000000	9.443764	0.000000	-9.443764	0.000000	0.000000	0.000000	0.000000	0.000000	0.000000	0.000000	0.000000	0.000000	0.000000	0.000000	0.000000	0.000000	0.000000	0.000000	0.000000	0.000000	0.000000	0.000000	0.000000	0.000000	0.000000	0.000000
0.613333	4.686410	-4.686410	0.000000	0.000000	0.000000	0.000000	42.177690	-9.372820	0.000000	9.372820	0.000000	-9.372820	0.000000	0.000000	0.000000	0.000000	0.000000	0.000000	0.000000	0.000000	0.000000	0.000000	0.000000	0.000000	0.000000	0.000000	0.000000	0.000000	0.000000	0.000000	0.000000	0.000000	0.000000	0.000000	0.000000
0.620000	4.648882	-4.648882	0.000000	0.000000	0.000000	0.000000	41.839942	-9.297765	0.000000	9.297765	0.000000	-9.297765	0.000000	0.000000	0.000000	0.000000	0.000000	0.000000	0.000000	0.000000	0.000000	0.000000	0.000000	0.000000	0.000000	0.000000	0.000000	0.000000	0.000000	0.000000	0.000000	0.000000	0.000000	0.000000	0.000000
0.626667	4.609316	-4.609316	0.000000	0.000000	0.000000	0.000000	41.483842	-9.218632	0.000000	9.218632	0.000000	-9.218632	0.000000	0.000000	0.000000	0.000000	0.000000	0.000000	0.000000	0.000000	0.000000	0.000000	0.000000	0.000000	0.000000	0.000000	0.000000	0.000000	0.000000	0.000000	0.000000	0.000000	0.000000	0.000000	0.000000
0.633333	4.567727	-4.567727	0.000000	0.000000	0.000000	0.000000	41.109546	-9.135455	0.000000	9.135455	0.000000	-9.135455	0.000000	0.000000	0.000000	0.000000	0.000000	0.000000	0.000000	0.000000	0.000000	0.000000	0.000000	0.000000	0.000000	0.000000	0.000000	0.000000	0.000000	0.000000	0.000000	0.000000	0.000000	0.000000	0.000000
0.640000	4.524135	-4.524135	0.000000	0.000000	0.000000	0.000000	40.717217	-9.048271	0.000000	9.048271	0.000000	-9.048271	0.000000	0.000000	0.000000	0.000000	0.000000	0.000000	0.000000	0.000000	0.000000	0.000000	0.000000	0.000000	0.000000	0.000000	0.000000	0.000000	0.000000	0.000000	0.000000	0.000000	0.000000	0.000000	0.000000
0.646667	4.478559	-4.478559	0.000000	0.000000	0.000000	0.000000	40.307029	-8.957118	0.000000	8.957118	0.000000	-8.957118	0.000000	0.000000	0.000000	0.000000	0.000000	0.000000	0.000000	0.000000	0.000000	0.000000	0.000000	0.000000	0.000000	0.000000	0.000000	0.000000	0.000000	0.000000	0.000000	0.000000	0.000000	0.000000	0.000000
0.653333	4.431018	-4.431018	0.000000	0.000000	0.000000	0.000000	39.879161	-8.862036	0.000000	8.862036	0.000000	-8.862036	0.000000	0.000000	0.000000	0.000000	0.000000	0.000000	0.000000	0.000000	0.000000	0.000000	0.000000	0.000000	0.000000	0.000000	0.000000	0.000000	0.000000	0.000000	0.000000	0.000000	0.000000	0.000000	0.000000
0.660000	4.381533	-4.381533	0.000000	0.000000	0.000000	0.000000	39.433801	-8.763067	0.000000	8.763067	0.000000	-8.763067	0.000000	0.000000	0.000000	0.000000	0.000000	0.000000	0.000000	0.000000	0.000000	0.000000	0.000000	0.000000	0.000000	0.000000	0.000000	0.000000	0.000000	0.000000	0.000000	0.000000	0.000000	0.000000	0.000000
0.666667	4.330127	-4.330127	0.000000	0.000000	0.000000	0.000000	38.971143	-8.660254	0.000000	8.660254	0.000000	-8.660254	0.000000	0.000000	0.000000	0.000000	0.000000	0.000000	0.000000	0.000000	0.000000	0.000000	0.000000	0.000000	0.000000	0.000000	0.000000	0.000000	0.000000	0.000000	0.000000	0.000000	0.000000	0.000000	0.000000
0.673333	4.276821	-4.276821	0.000000	0.000000	0.000000	0.000000	38.491392	-8.553643	0.000000	8.553643	0.000000	-8.553643	0.000000	0.000000	0.000000	0.000000	0.000000	0.000000	0.000000	0.000000	0.000000	0.000000	0.000000	0.000000	0.000000	0.000000	0.000000	0.000000	0.000000	0.000000	0.000000	0.000000	0.000000	0.000000	0.000000
0.680000	4.221640	-4.221640	0.000000	0.000000	0.000000	0.000000	37.994757	-8.443279	0.000000	8.443279	0.000000	-8.443279	0.000000	0.000000	0.000000	0.000000	0.000000	0.000000	0.000000	0.000000	0.000000	0.000000	0.000000	0.000000	0.000000	0.000000	0.000000	0.000000	0.000000	0.000000	0.000000	0.000000	0.000000	0.000000	0.000000
0.686667	4.164606	-4.164606	0.000000	0.000000	0.000000	0.000000	37.481456	-8.329212	0.000000	8.329212	0.000000	-8.329212	0.000000	0.000000	0.000000	0.000000	0.000000	0.000000	0.000000	0.000000	0.000000	0.000000	0.000000	0.000000	0.000000	0.000000	0.000000	0.000000	0.000000	0.000000	0.000000	0.000000	0.000000	0.000000	0.000000
0.693333	4.105746	-4.105746	0.000000	0.000000	0.000000	0.000000	36.951714	-8.211492	0.000000	8.211492	0.000000	-8.211492	0.000000	0.000000	0.000000	0.000000	0.000000	0.000000	0.000000	0.000000	0.000000	0.000000	0.000000	0.000000	0.000000	0.000000	0.000000	0.000000	0.000000	0.000000	0.000000	0.000000	0.000000	0.000000	0.000000
0.700000	4.045085	-4.045085	0.000000	0.000000	0.000000	0.000000	36.405765	-8.090170	0.000000	8.090170	0.000000	-8.090170	0.000000	0.000000	0.000000	0.000000	0.000000	0.000000	0.000000	0.000000	0.000000	0.000000	0.000000	0.000000	0.000000	0.000000	0.000000	0.000000	0.000000	0.000000	0.000000	0.000000	0.000000	0.000000	0.000000
0.706667	3.982650	-3.982650	0.000000	0.000000	0.000000	0.000000	35.843846	-7.965299	0.000000	7.965299	0.000000	-7.965299	0.000000	0.000000	0.000000	0.000000	0.000000	0.000000	0.000000	0.000000	0.000000	0.000000	0.000000	0.000000	0.000000	0.000000	0.000000	0.000000	0.000000	0.000000	0.000000	0.000000	0.000000	0.000000	0.000000
0.713333	3.918467	-3.918467	0.000000	0.000000	0.000000	0.000000	35.266206	-7.836935	0.000000	7.836935	0.000000	-7.836935	0.000000	0.000000	0.000000	0.000000	0.000000	0.000000	0.000000	0.000000	0.000000	0.000000	0.000000	0.000000	0.000000	0.000000	0.000000	0.000000	0.000000	0.000000	0.000000	0.000000	0.000000	0.000000	0.000000
